# xmcd CD database file
#
# Track frame offsets:
#	150
#	15685
#	35749
#	52791
#	65962
#	81190
#	106046
#	122655
#	136729
#	152967
#	166937
#	184195
#	195768
#	215122
#	228299
#
# Disc length: 3243 seconds
#
# Revision: 11
# Processed by: cddbd v1.5.2PL0 Copyright (c) Steve Scherf et al.
# Submitted via: CDex 1.51
#
DISCID=c50ca90f
DTITLE=Victor e Leo - Ao Vivo
DYEAR=2006
DGENRE=Sertanejo
TTITLE0=Sinto Falta De Voce
TTITLE1=Quem De Nos Dois
TTITLE2=Fada
TTITLE3=Telefone Mudo
TTITLE4=Jogo Da Vida
TTITLE5=60 Dias Apaixonado - Fazenda Sao Francisco
TTITLE6=O Granfino E O Caipira
TTITLE7=Vida Boa
TTITLE8=Amigo Apaixonado
TTITLE9=Arapuca
TTITLE10=Lembrancas De Amor
TTITLE11=Chuva De Bruxaria
TTITLE12=Meu Eu Em Você
TTITLE13=O Cuidador Do Fogo
TTITLE14=Milonga Para As Missoes (Instrumental)
EXTD=By Paulo Sergio YEAR: 2006
EXTT0=
EXTT1=
EXTT2=
EXTT3=
EXTT4=
EXTT5=
EXTT6=
EXTT7=
EXTT8=
EXTT9=
EXTT10=
EXTT11=
EXTT12=
EXTT13=
EXTT14=
PLAYORDER=
